<svg width="48" height="53" viewBox="0 0 48 53" fill="none" xmlns="http://www.w3.org/2000/svg">
<path d="M24 52.0659C37.25 52.0659 48 40.4053 48 26.033C48 11.6606 37.25 0 24 0C10.75 0 0 11.6606 0 26.033C0 40.4053 10.75 52.0659 24 52.0659Z" fill="#68AAF3"/>
<path fill-rule="evenodd" clip-rule="evenodd" d="M24 17.3552C21.83 17.3552 21.56 17.3658 20.7 17.4092C17.79 17.5502 16.18 19.297 16.05 22.4535C16.01 23.3863 16 23.679 16 26.0328C16 28.3866 16.01 28.6901 16.05 29.6121C16.18 32.7578 17.79 34.5154 20.7 34.6564C21.56 34.6998 21.83 34.7105 24 34.7105C26.17 34.7105 26.45 34.6998 27.3 34.6564C30.2 34.5154 31.82 32.7686 31.95 29.6121C31.99 28.6901 32 28.3866 32 26.0328C32 23.679 31.99 23.3863 31.95 22.4535C31.82 19.3078 30.21 17.5502 27.3 17.4092C26.45 17.3658 26.17 17.3552 24 17.3552ZM24 18.9171C26.14 18.9171 26.39 18.9282 27.23 18.9716C29.4 19.0801 30.41 20.1971 30.51 22.5292C30.55 23.4404 30.5601 23.7115 30.5601 26.0328C30.5601 28.3541 30.55 28.6252 30.51 29.5364C30.41 31.8685 29.4 32.9855 27.23 33.094C26.39 33.1374 26.14 33.1486 24 33.1486C21.86 33.1486 21.61 33.1374 20.77 33.094C18.59 32.9855 17.59 31.8685 17.49 29.5364C17.45 28.6252 17.4399 28.3541 17.4399 26.0328C17.4399 23.7115 17.45 23.4404 17.49 22.5292C17.59 20.1863 18.6 19.0801 20.77 18.9716C21.61 18.9282 21.86 18.9171 24 18.9171ZM19.89 26.0328C19.89 23.5705 21.73 21.5748 24 21.5748C26.27 21.5748 28.11 23.5705 28.11 26.0328C28.11 28.4951 26.27 30.4908 24 30.4908C21.73 30.4908 19.89 28.4951 19.89 26.0328ZM24 28.9289C22.53 28.9289 21.33 27.6273 21.33 26.0328C21.33 24.4383 22.53 23.1367 24 23.1367C25.47 23.1367 26.67 24.4383 26.67 26.0328C26.67 27.6273 25.47 28.9289 24 28.9289ZM27.3101 21.4011C27.3101 20.8262 27.74 20.3598 28.27 20.3598C28.8 20.3598 29.23 20.8262 29.23 21.4011C29.23 21.976 28.8 22.4424 28.27 22.4424C27.74 22.4424 27.3101 21.976 27.3101 21.4011Z" fill="#F9F9F9"/>
</svg>
