<svg width="48" height="53" viewBox="0 0 48 53" fill="none" xmlns="http://www.w3.org/2000/svg">
<path d="M24 52.0659C37.25 52.0659 48 40.4201 48 26.0659C48 11.7118 37.25 0.065918 24 0.065918C10.75 0.065918 0 11.7118 0 26.0659C0 40.4201 10.75 52.0659 24 52.0659Z" fill="#E17094"/>
<path d="M32 21.1369C31.41 21.4977 30.78 21.7475 30.11 21.8585C30.79 21.2896 31.3101 20.4018 31.5601 19.3333C30.9201 19.8606 30.22 20.235 29.47 20.4431C28.88 19.5551 28.02 19 27.08 19C24.96 19 23.4 21.7471 23.88 24.5916C21.15 24.3974 18.73 22.594 17.11 19.8327C16.25 21.8863 16.67 24.5642 18.13 25.9101C17.59 25.8962 17.09 25.6879 16.65 25.341C16.61 27.4501 17.7 29.4347 19.28 29.8648C18.82 30.0452 18.31 30.0869 17.8 29.9482C18.21 31.752 19.43 33.0699 20.86 33.1116C19.48 34.6101 17.74 35.276 16 34.9985C17.45 36.2889 19.18 37.0385 21.03 37.0385C27.13 37.0385 30.57 29.9067 30.36 23.4961C31 22.8578 31.56 22.0527 32 21.1369Z" fill="#F9F9F9"/>
</svg>
