<svg xmlns="http://www.w3.org/2000/svg" width="15" height="15" viewBox="0 0 15 15" fill="none">
  <path d="M8.01688 1.68921C8.68579 1.69099 9.02529 1.69456 9.31842 1.70288L9.43377 1.70705C9.56696 1.7118 9.69836 1.71775 9.85712 1.72488C10.4898 1.75461 10.9214 1.8545 11.3002 2.00137C11.6926 2.15239 12.0232 2.35693 12.3538 2.68692C12.6561 2.98415 12.8901 3.34369 13.0393 3.74052C13.1862 4.11927 13.2861 4.55094 13.3158 5.18417C13.3229 5.34233 13.3289 5.47373 13.3336 5.60751L13.3372 5.72286C13.3461 6.0154 13.3497 6.3549 13.3509 7.02381L13.3515 7.46737V8.24627C13.3529 8.67997 13.3484 9.11366 13.3378 9.54722L13.3342 9.66257C13.3295 9.79635 13.3235 9.92776 13.3164 10.0859C13.2867 10.7191 13.1856 11.1502 13.0393 11.5296C12.8905 11.9266 12.6565 12.2862 12.3538 12.5832C12.0565 12.8854 11.6969 13.1193 11.3002 13.2687C10.9214 13.4156 10.4898 13.5155 9.85712 13.5452C9.71603 13.5518 9.57492 13.5578 9.43377 13.563L9.31842 13.5666C9.02529 13.5749 8.68579 13.5791 8.01688 13.5803L7.57332 13.5809H6.79501C6.36112 13.5824 5.92723 13.5778 5.49347 13.5672L5.37812 13.5636C5.23697 13.5583 5.09585 13.5521 4.95478 13.5452C4.32214 13.5155 3.89047 13.4156 3.51113 13.2687C3.11434 13.1197 2.75495 12.8857 2.45812 12.5832C2.15551 12.286 1.92135 11.9265 1.77197 11.5296C1.62511 11.1508 1.52522 10.7191 1.49549 10.0859C1.48887 9.94483 1.48292 9.80371 1.47765 9.66257L1.47468 9.54722C1.46372 9.11366 1.45877 8.67997 1.45982 8.24627V7.02381C1.45816 6.59012 1.46252 6.15643 1.4729 5.72286L1.47706 5.60751C1.48182 5.47373 1.48776 5.34233 1.4949 5.18417C1.52463 4.55094 1.62452 4.11987 1.77138 3.74052C1.92069 3.34328 2.15531 2.98363 2.45872 2.68692C2.75547 2.38456 3.11463 2.1506 3.51113 2.00137C3.89047 1.8545 4.32155 1.75461 4.95478 1.72488C5.11294 1.71775 5.24493 1.7118 5.37812 1.70705L5.49347 1.70348C5.92703 1.69291 6.36073 1.68836 6.79442 1.6898L8.01688 1.68921ZM7.40565 4.66213C6.61718 4.66213 5.86101 4.97534 5.30348 5.53287C4.74595 6.0904 4.43273 6.84658 4.43273 7.63504C4.43273 8.42351 4.74595 9.17968 5.30348 9.73721C5.86101 10.2947 6.61718 10.608 7.40565 10.608C8.19412 10.608 8.95029 10.2947 9.50782 9.73721C10.0653 9.17968 10.3786 8.42351 10.3786 7.63504C10.3786 6.84658 10.0653 6.0904 9.50782 5.53287C8.95029 4.97534 8.19412 4.66213 7.40565 4.66213ZM7.40565 5.85129C7.63989 5.85125 7.87185 5.89735 8.08828 5.98696C8.30471 6.07656 8.50137 6.20792 8.66704 6.37353C8.8327 6.53914 8.96412 6.73576 9.0538 6.95216C9.14348 7.16856 9.18966 7.4005 9.1897 7.63475C9.18974 7.86899 9.14364 8.10095 9.05403 8.31738C8.96442 8.53381 8.83307 8.73047 8.66746 8.89613C8.50185 9.0618 8.30523 9.19322 8.08883 9.2829C7.87243 9.37258 7.64049 9.41875 7.40624 9.41879C6.93316 9.41879 6.47946 9.23086 6.14494 8.89634C5.81042 8.56183 5.62249 8.10812 5.62249 7.63504C5.62249 7.16196 5.81042 6.70826 6.14494 6.37374C6.47946 6.03922 6.93316 5.85129 7.40624 5.85129M10.5278 3.77025C10.3307 3.77025 10.1416 3.84855 10.0023 3.98794C9.86288 4.12732 9.78458 4.31636 9.78458 4.51348C9.78458 4.7106 9.86288 4.89964 10.0023 5.03902C10.1416 5.1784 10.3307 5.25671 10.5278 5.25671C10.7249 5.25671 10.914 5.1784 11.0533 5.03902C11.1927 4.89964 11.271 4.7106 11.271 4.51348C11.271 4.31636 11.1927 4.12732 11.0533 3.98794C10.914 3.84855 10.7249 3.77025 10.5278 3.77025Z" fill="black"/>
</svg>