<svg xmlns="http://www.w3.org/2000/svg" width="15" height="15" viewBox="0 0 15 15" fill="none">
  <g clip-path="url(#clip0_1_6461)">
    <path d="M12.7199 0.5H2.63041C1.47788 0.5 0.540039 1.43784 0.540039 2.59037V12.6799C0.540039 13.8324 1.47788 14.7703 2.63041 14.7703H12.7199C13.8725 14.7703 14.8103 13.8324 14.8103 12.6799V2.59037C14.8103 1.43784 13.8725 0.5 12.7199 0.5ZM5.5848 11.8159H3.91251V5.96284H5.5848V11.8159ZM5.5848 5.12669H3.91251V3.45439H5.5848V5.12669ZM11.4378 11.8159H9.76555V8.47128C9.76555 8.01031 9.39037 7.63514 8.9294 7.63514C8.46843 7.63514 8.09325 8.01031 8.09325 8.47128V11.8159H6.42095V5.96284H8.09325V6.27803C8.53136 6.14183 8.81595 5.96284 9.34747 5.96284C10.4816 5.96404 11.4378 6.98146 11.4378 8.18386V11.8159Z" fill="black"/>
  </g>
  <defs>
    <clipPath id="clip0_1_6461">
      <rect width="14.2703" height="14.2703" fill="white" transform="translate(0.540039 0.5)"/>
    </clipPath>
  </defs>
</svg>