<svg xmlns="http://www.w3.org/2000/svg" width="15" height="15" viewBox="0 0 15 15" fill="none">
  <g clip-path="url(#clip0_1_6457)">
    <path d="M5.32379 13.4893C4.70669 13.4893 4.07153 13.4394 3.43255 13.3392C2.30713 13.1626 1.16788 12.5739 0.845509 12.3977L0 11.9354L0.915405 11.6343C1.91606 11.3053 2.52477 11.1012 3.27828 10.7815C2.52379 10.4162 1.9423 9.75888 1.66238 8.90924L1.44943 8.26274L1.62406 8.28942C1.45846 8.12252 1.32771 7.95311 1.22635 7.79905C0.865868 7.25153 0.675013 6.5825 0.715623 6.00917L0.755688 5.44488L1.09352 5.57575C0.951007 5.30661 0.848013 5.01918 0.787479 4.71793C0.639956 3.98325 0.763418 3.20274 1.13522 2.52021L1.4295 1.97998L1.82308 2.45271C3.06783 3.94798 4.64442 4.83497 6.51562 5.09463C6.43919 4.5678 6.49646 4.05936 6.68601 3.60361C6.90669 3.07296 7.29929 2.62299 7.82101 2.30225C8.40043 1.94612 9.1031 1.77356 9.79956 1.81634C10.5385 1.86174 11.2094 2.13861 11.7422 2.61754C12.0024 2.54993 12.1941 2.47775 12.4532 2.3802C12.6091 2.32152 12.7859 2.25489 13.0072 2.17868L13.8224 1.89778L13.2908 3.41613C13.3259 3.41319 13.362 3.41069 13.3998 3.40905L14.2703 3.36964L13.7558 4.07286C13.7263 4.11314 13.7188 4.12457 13.7083 4.14036C13.6668 4.20285 13.6152 4.28059 12.909 5.22365C12.7322 5.4598 12.6439 5.76736 12.6603 6.08985C12.7229 7.31533 12.5726 8.4241 12.2132 9.38523C11.8733 10.2945 11.3465 11.0747 10.6478 11.7041C9.78312 12.4828 8.68056 13.0159 7.3706 13.2886C6.72803 13.4223 6.03799 13.4893 5.32379 13.4893V13.4893Z" fill="black"/>
  </g>
  <defs>
    <clipPath id="clip0_1_6457">
      <rect width="14.2703" height="14.2703" fill="white" transform="translate(0 0.5)"/>
    </clipPath>
  </defs>
</svg>